<svg xmlns="http://www.w3.org/2000/svg" viewBox="0 0 512 512" width="512" height="512">
  <defs>
    <linearGradient id="bgGrad" x1="0" y1="0" x2="1" y2="1">
      <stop offset="0%" stop-color="#12243c"/>
      <stop offset="100%" stop-color="#0d1a2e"/>
    </linearGradient>
  </defs>

  <!-- Outer rounded square -->
  <rect x="8" y="8" width="496" height="496" rx="64" fill="url(#bgGrad)" stroke="#1a4066" stroke-width="3"/>

  <!-- Shield shape -->
  <g transform="translate(148,55)">
    <path d="M 10,22 L 38,22 L 108,27 L 178,22 L 206,22 L 216,45 L 108,400 L 0,45 Z"
          fill="#080c12" stroke="#1a80ff" stroke-width="3.5"/>

    <!-- Central Z shape -->
    <g fill="#080c12" stroke="#1a80ff" stroke-width="3" stroke-linejoin="miter">
      <!-- Z top bar -->
      <polygon points="30,35 186,35 186,55 110,55 110,70 186,70 186,50 30,50 30,70 90,70 90,50 30,50"/>
      <!-- Z diagonal -->
      <polygon points="30,55 110,340 186,340 106,55"/>
      <!-- Z bottom bar -->
      <polygon points="30,320 186,320 186,335 110,335 110,320 186,320 186,345 30,345 30,325 90,325 90,340 30,340"/>
    </g>

    <!-- Sword blade -->
    <g fill="#080c12" stroke="#1a80ff" stroke-width="2.5">
      <rect x="99" y="35" width="18" height="330" rx="2"/>
      <!-- Sword guard -->
      <rect x="80" y="280" width="56" height="16" rx="2"/>
      <!-- Sword pommel -->
      <rect x="92" y="350" width="32" height="20" rx="2"/>
      <!-- Pommel cross -->
      <line x1="108" y1="350" x2="108" y2="370" stroke="#1a80ff" stroke-width="2"/>
      <line x1="92" y1="360" x2="124" y2="360" stroke="#1a80ff" stroke-width="2"/>
    </g>

    <!-- Side squares -->
    <rect x="40" y="270" width="20" height="20" fill="#080c12" stroke="#1a80ff" stroke-width="2"/>
    <rect x="156" y="270" width="20" height="20" fill="#080c12" stroke="#1a80ff" stroke-width="2"/>

    <!-- Top indent accent -->
    <rect x="94" y="24" width="28" height="8" fill="#080c12" stroke="#1a80ff" stroke-width="2"/>

    <!-- Bottom cross -->
    <g stroke="#1a80ff" stroke-width="2" fill="#080c12">
      <rect x="98" y="385" width="20" height="8"/>
      <rect x="104" y="379" width="8" height="20"/>
    </g>
  </g>
</svg>
